HIERARCHY
ROOT root
{
	OFFSET	0	13.1	24.9
	CHANNELS 6  Xposition Yposition Zposition Xrotation Yrotation Zrotation
	JOINT spine_1
	{
		OFFSET	0	9.99999	0
		CHANNELS 3  Xrotation Yrotation Zrotation
		JOINT spine_2
		{
			OFFSET	0	112	-10
			CHANNELS 3  Xrotation Yrotation Zrotation
			JOINT spine_3
			{
				OFFSET	0	206.5	19.3
				CHANNELS 3  Xrotation Yrotation Zrotation
				JOINT spine_4
				{
					OFFSET	0	110.4	14.6
					CHANNELS 3  Xrotation Yrotation Zrotation
					JOINT neck_1
					{
						OFFSET	0	71.8	-50.3
						CHANNELS 3  Xrotation Yrotation Zrotation
						JOINT neck_2
						{
							OFFSET	0	86.2	-25.8
							CHANNELS 3  Xrotation Yrotation Zrotation
							JOINT head_ee
							{
								OFFSET	0	179.8	-8.7
								CHANNELS 3  Xrotation Yrotation Zrotation
								End Site
								{
									OFFSET	1	0	0
								}
							}
						}
					}
					JOINT left_clavicle
					{
						OFFSET	-43.2	22.4	-70.8
						CHANNELS 3  Xrotation Yrotation Zrotation
						JOINT left_shoulder
						{
							OFFSET	-93.9	-5.79999	48.7
							CHANNELS 3  Xrotation Yrotation Zrotation
							JOINT left_elbow
							{
								OFFSET	-291.4	-30.8	15.2
								CHANNELS 3  Xrotation Yrotation Zrotation
								JOINT left_lowarm_twist
								{
									OFFSET	-110.7	-3.89999	13.6
									CHANNELS 3  Xrotation Yrotation Zrotation
									JOINT left_hand
									{
										OFFSET	-110.7	-3.89999	13.6
										CHANNELS 3  Xrotation Yrotation Zrotation
										JOINT left_ee
										{
											OFFSET	-80.8	-5.10001	12.1
											CHANNELS 3  Xrotation Yrotation Zrotation
											End Site
											{
												OFFSET	1	0	0
											}
										}
									}
								}
							}
						}
					}
					JOINT right_clavicle
					{
						OFFSET	43.2	22.4	-70.8
						CHANNELS 3  Xrotation Yrotation Zrotation
						JOINT right_shoulder
						{
							OFFSET	93.9	-5.79999	48.7
							CHANNELS 3  Xrotation Yrotation Zrotation
							JOINT right_elbow
							{
								OFFSET	291.4	-30.8	15.2
								CHANNELS 3  Xrotation Yrotation Zrotation
								JOINT right_lowarm_twist
								{
									OFFSET	110.7	-3.89999	13.6
									CHANNELS 3  Xrotation Yrotation Zrotation
									JOINT right_hand
									{
										OFFSET	110.7	-3.89999	13.6
										CHANNELS 3  Xrotation Yrotation Zrotation
										JOINT right_ee
										{
											OFFSET	80.8	-5.10001	12.1
											CHANNELS 3  Xrotation Yrotation Zrotation
											End Site
											{
												OFFSET	1	0	0
											}
										}
									}
								}
							}
						}
					}
				}
			}
		}
	}
	JOINT left_hip
	{
		OFFSET	-82.8	-127.5	0.300001
		CHANNELS 3  Xrotation Yrotation Zrotation
		JOINT left_knee
		{
			OFFSET	-28.2	-396.7	2.2
			CHANNELS 3  Xrotation Yrotation Zrotation
			JOINT left_ankle
			{
				OFFSET	-11.7	-411.3	35.4
				CHANNELS 3  Xrotation Yrotation Zrotation
				JOINT left_toes
				{
					OFFSET	0	-60	-88.6
					CHANNELS 3  Xrotation Yrotation Zrotation
					JOINT left_foot_ee
					{
						OFFSET	-22.5	-16.5	-42.2
						CHANNELS 3  Xrotation Yrotation Zrotation
						End Site
						{
							OFFSET	1	0	0
						}
					}
				}
			}
		}
	}
	JOINT right_hip
	{
		OFFSET	82.8	-127.5	0.300001
		CHANNELS 3  Xrotation Yrotation Zrotation
		JOINT right_knee
		{
			OFFSET	28.2	-396.7	2.2
			CHANNELS 3  Xrotation Yrotation Zrotation
			JOINT right_ankle
			{
				OFFSET	11.7	-411.3	35.4
				CHANNELS 3  Xrotation Yrotation Zrotation
				JOINT right_toes
				{
					OFFSET	0	-60	-88.6
					CHANNELS 3  Xrotation Yrotation Zrotation
					JOINT right_foot_ee
					{
						OFFSET	22.5	-16.5	-42.2
						CHANNELS 3  Xrotation Yrotation Zrotation
						End Site
						{
							OFFSET	1	0	0
						}
					}
				}
			}
		}
	}
}
MOTION
Frames: 9
Frame Time: 0.02
1372.05 701.618 -1475.22 -19.3030145066 18.2461458432 5.44755024562 7.0984 0.2724 0.912206 7.09884 0.213805 0.927689 7.10163 0.131648 0.94286 7.1005 0.278897 0.910241 -14.357 4.16228 -3.22476 -14.4054 9.89599 -1.71991 -0.0 0.0 -0.0 5.64737 -5.0229 10.7731 1.65021 -10.6752 57.3331 2.55658 -51.6967 1.23872 82.0033 -4.07145 -8.71864 1.59548 -11.2931 5.97054 -0.0 0.0 -0.0 11.0002 5.51247 -21.9888 46.7535 -68.2873 -0.468288 0.463225 12.924 -0.052467 76.7773 3.47226 8.41777 -2.76162 16.2157 26.2178 0.0 0.0 0.0 5.2655 31.2984 6.04735 -13.3132 0.315363 2.01417 40.0457 -5.85781 -4.94895 1.70611 -0.0 -0.0 -0.0 0.0 -0.0 52.2196 22.4062 -9.30771 -2.51377 -0.0953088 -0.373977 0.583563 5.34307 0.0877898 -39.4215 0.0 0.0 0.0 0.0 0.0 
1341.61290469 691.358 -1528.2690006 -18.898604395 19.539160543 4.86631745059 6.92446 0.375303 0.961302 6.92492 0.313376 0.983232 6.9296 0.222958 1.00759 6.92838 0.379282 0.959738 -13.8151 3.11538 -1.62621 -13.8426 6.93763 -0.575598 -0.0 0.0 -0.0 5.19675 -0.825694 10.019 -5.31365 -13.5797 56.2151 2.9919 -55.9804 1.59043 85.1733 -4.44729 -8.87409 1.49477 -4.56027 8.16537 -0.0 0.0 -0.0 11.1805 4.5681 -22.3517 42.8514 -67.167 -4.93865 0.404495 11.3308 -0.0401274 73.4991 3.1113 8.20169 -2.66722 21.6985 27.6936 0.0 0.0 0.0 1.97611 28.3955 7.1217 -15.8069 0.322003 2.39669 39.8465 -1.87911 -4.87917 4.12953 -0.0 -0.0 -0.0 0.0 -0.0 53.883 23.7383 -10.82 -14.1898 -0.319595 -2.14859 7.10555 14.128 1.10118 -31.7651 0.0 0.0 0.0 0.0 0.0 
1325.58484937 688.756 -1553.55263181 -19.5132444745 21.0174672776 5.38739337977 7.13673 0.289643 1.04475 7.13731 0.222579 1.06107 7.14055 0.12943 1.0764 7.13906 0.297795 1.04246 -12.5699 4.17709 -3.72128 -12.592 10.2937 -2.34936 -0.0 0.0 -0.0 4.62752 1.28279 8.98316 -7.12962 -14.3147 58.2827 2.90826 -55.2238 1.52141 84.9134 -4.41616 -8.86213 2.01807 -4.86238 11.6187 -0.0 0.0 -0.0 10.2467 1.4917 -20.237 36.9 -65.5568 -12.7709 0.31874 8.97281 -0.0250093 79.0393 3.72823 8.55469 -3.03981 13.5657 27.1709 0.0 0.0 0.0 4.29548 28.1545 5.42694 -20.7177 0.286416 3.1491 40.2725 0.862489 -4.89353 2.62881 -0.0 -0.0 -0.0 0.0 -0.0 53.5548 22.0783 -10.2981 -16.1723 -0.321577 -2.45275 9.418 17.1965 1.48127 -31.3978 0.0 0.0 0.0 0.0 0.0 
1313.77425416 691.866 -1573.01727435 -19.2333525781 20.9093606551 4.68954645044 7.06026 0.281339 1.21523 7.06106 0.203447 1.23066 7.06425 0.0939587 1.24382 7.0622 0.289203 1.21338 -12.7238 4.44471 -1.56444 -12.7707 9.43488 -0.190035 -0.0 0.0 -0.0 4.39438 1.57535 8.54658 -9.25852 -14.8388 58.0867 2.48 -50.8468 1.17897 82.5565 -4.13641 -8.74726 2.62875 -1.93306 17.077 -0.0 0.0 -0.0 10.57 1.95733 -20.9381 34.7461 -65.9557 -16.3354 0.328138 9.23288 -0.0264962 85.2056 4.45116 8.87557 -1.91935 18.0798 20.8823 0.0 0.0 0.0 6.0007 22.9109 6.16367 -22.853 0.250856 3.4748 40.9655 10.4609 -4.96397 7.08147 -0.0 -0.0 -0.0 0.0 -0.0 51.5459 23.4756 -9.90734 -14.0859 -0.319201 -2.13266 9.92109 18.398 1.57305 -33.7743 0.0 0.0 0.0 0.0 0.0 
1286.03239018 694.857 -1603.56162621 -18.896128673 21.2828420673 4.17350347217 7.12955 0.299056 1.05143 7.13014 0.231548 1.06833 7.13356 0.137603 1.08444 7.13205 0.307133 1.0491 -12.3259 5.26471 -1.94728 -12.386 11.2346 -0.351809 -0.0 0.0 -0.0 4.31148 4.30909 8.48919 -10.5093 -14.7139 60.7542 2.15608 -46.8789 0.934871 85.2102 -4.4517 -8.87578 2.5264 -0.669754 16.871 -0.0 0.0 -0.0 10.5354 -0.0802957 -20.7608 25.8874 -61.453 -24.2553 0.310113 8.73375 -0.0236816 85.2424 4.45558 8.87725 -2.50817 5.51837 19.6323 0.0 0.0 0.0 6.56101 20.7239 7.0109 -26.4136 0.164643 4.01433 41.5953 17.4661 -5.11724 6.60489 -0.0 -0.0 -0.0 0.0 -0.0 49.2303 24.8693 -9.12842 -15.5478 -0.322088 -2.35694 14.754 18.1999 2.28691 -31.0659 0.0 0.0 0.0 0.0 0.0 
1288.59471772 694.857 -1605.24237528 -18.7572182373 20.2072117063 3.78135222559 7.12955 0.299056 1.05143 7.13014 0.231548 1.06833 7.13356 0.137603 1.08444 7.13205 0.307133 1.0491 -12.3259 5.26471 -1.94728 -12.386 11.2346 -0.351809 -0.0 0.0 -0.0 4.31148 4.30909 8.48919 -10.5093 -14.7139 60.7542 2.15608 -46.8789 0.934871 85.2102 -4.4517 -8.87578 2.5264 -0.669754 16.871 -0.0 0.0 -0.0 10.5354 -0.0802957 -20.7608 25.8874 -61.453 -24.2553 0.310113 8.73375 -0.0236816 85.2424 4.45558 8.87725 -2.50817 5.51837 19.6323 0.0 0.0 0.0 6.56101 20.7239 7.0109 -26.4136 0.164643 4.01433 41.5953 17.4661 -5.11724 6.60489 -0.0 -0.0 -0.0 0.0 -0.0 49.2303 24.8693 -9.12842 -15.5478 -0.322088 -2.35694 14.754 18.1999 2.28691 -31.0659 0.0 0.0 0.0 0.0 0.0 
1251.06007473 699.249 -1645.53977713 -17.237246842 20.2194325237 1.9125492688 6.70879 0.289985 1.0573 6.70938 0.222123 1.0736 6.71271 0.11975 1.08978 6.71118 0.290348 1.0572 -13.6947 7.38469 -0.805574 -13.848 14.5706 1.54465 -0.0 0.0 -0.0 3.85383 6.81369 7.73644 -13.9015 -15.2033 62.7118 1.58683 -38.167 0.549008 78.135 -3.62526 -8.50116 2.08847 2.92143 15.242 -0.0 0.0 -0.0 11.1581 1.94126 -22.1874 19.772 -57.6287 -34.0869 0.332302 9.34797 -0.0271684 85.1818 4.44831 8.87448 -1.54216 7.45971 13.7054 0.0 0.0 0.0 8.56423 13.4416 9.0939 -32.6854 -0.0681229 4.94822 40.9415 25.6771 -5.28048 11.7059 -0.0 -0.0 -0.0 0.0 -0.0 44.3985 23.3268 -6.59191 -18.5164 -0.310344 -2.8122 22.6269 18.3701 3.37183 -32.0743 0.0 0.0 0.0 0.0 0.0 
1232.53734951 705.551 -1671.23858521 -16.4224515644 19.329655806 0.652099989256 6.66475 0.351663 1.16405 6.66546 0.276884 1.18407 6.6702 0.162955 1.20504 6.66834 0.351211 1.16419 -14.563 5.71823 -0.158288 -14.6624 11.0193 1.71315 -0.0 0.0 -0.0 3.71968 9.66389 7.59707 -13.9387 -18.5795 63.907 1.01359 -26.6607 0.240175 75.9722 -3.38247 -8.36662 2.685 2.70031 19.3086 -0.0 0.0 -0.0 10.8912 2.54689 -21.6472 22.508 -56.2585 -36.9752 0.193042 5.46257 -0.0092093 85.1428 4.44363 8.87269 -1.58507 0.168729 10.7241 0.0 0.0 0.0 13.1997 13.7821 8.02801 -42.7628 -0.651825 6.38065 40.2889 25.3623 -5.20762 12.6786 -0.0 -0.0 -0.0 0.0 -0.0 41.6227 21.2498 -5.18008 -21.5976 -0.273234 -3.28347 29.9984 13.6849 4.1312 -30.4274 0.0 0.0 0.0 0.0 0.0 
1239.54347657 705.551 -1676.04103138 -16.2337001565 17.3883430535 0.0529229055573 6.66475 0.351663 1.16405 6.66546 0.276884 1.18407 6.6702 0.162955 1.20504 6.66834 0.351211 1.16419 -14.563 5.71823 -0.158288 -14.6624 11.0193 1.71315 -0.0 0.0 -0.0 3.71968 9.66389 7.59707 -13.9387 -18.5795 63.907 1.01359 -26.6607 0.240175 75.9722 -3.38247 -8.36662 2.685 2.70031 19.3086 -0.0 0.0 -0.0 10.8912 2.54689 -21.6472 22.508 -56.2585 -36.9752 0.193042 5.46257 -0.0092093 85.1428 4.44363 8.87269 -1.58507 0.168729 10.7241 0.0 0.0 0.0 13.1997 13.7821 8.02801 -42.7628 -0.651825 6.38065 40.2889 25.3623 -5.20762 12.6786 -0.0 -0.0 -0.0 0.0 -0.0 41.6227 21.2498 -5.18008 -21.5976 -0.273234 -3.28347 29.9984 13.6849 4.1312 -30.4274 0.0 0.0 0.0 0.0 0.0 
